<mxfile host="Electron" modified="2023-08-06T13:27:54.110Z" agent="Mozilla/5.0 (Windows NT 10.0; Win64; x64) AppleWebKit/537.36 (KHTML, like Gecko) draw.io/21.6.5 Chrome/114.0.5735.243 Electron/25.3.1 Safari/537.36" etag="jfPyFmk2SwR63kQRcFFV" version="21.6.5" type="device">
  <diagram name="Page-1" id="ZgBHSsb0737UFhy8jlRp">
    <mxGraphModel dx="880" dy="511" grid="0" gridSize="10" guides="1" tooltips="1" connect="1" arrows="1" fold="1" page="1" pageScale="1" pageWidth="1169" pageHeight="827" math="0" shadow="0">
      <root>
        <mxCell id="0" />
        <mxCell id="1" parent="0" />
        <mxCell id="WF_goIFKTmSbDn6iOLR5-5" style="rounded=0;orthogonalLoop=1;jettySize=auto;html=1;exitX=0.25;exitY=1;exitDx=0;exitDy=0;entryX=0.75;entryY=0;entryDx=0;entryDy=0;startArrow=diamondThin;startFill=1;startSize=12;endArrow=openThin;endFill=0;endSize=12;" edge="1" parent="1" source="WF_goIFKTmSbDn6iOLR5-1" target="WF_goIFKTmSbDn6iOLR5-2">
          <mxGeometry relative="1" as="geometry" />
        </mxCell>
        <mxCell id="WF_goIFKTmSbDn6iOLR5-9" value="1" style="edgeLabel;html=1;align=center;verticalAlign=middle;resizable=0;points=[];" vertex="1" connectable="0" parent="WF_goIFKTmSbDn6iOLR5-5">
          <mxGeometry x="-0.568" y="-1" relative="1" as="geometry">
            <mxPoint x="-8" y="-7" as="offset" />
          </mxGeometry>
        </mxCell>
        <mxCell id="WF_goIFKTmSbDn6iOLR5-12" value="2" style="edgeLabel;html=1;align=center;verticalAlign=middle;resizable=0;points=[];" vertex="1" connectable="0" parent="WF_goIFKTmSbDn6iOLR5-5">
          <mxGeometry x="0.455" y="2" relative="1" as="geometry">
            <mxPoint x="-2" y="9" as="offset" />
          </mxGeometry>
        </mxCell>
        <mxCell id="WF_goIFKTmSbDn6iOLR5-16" value="+scrollbar" style="edgeLabel;html=1;align=center;verticalAlign=middle;resizable=0;points=[];" vertex="1" connectable="0" parent="WF_goIFKTmSbDn6iOLR5-5">
          <mxGeometry x="0.4779" relative="1" as="geometry">
            <mxPoint x="-38" y="-6" as="offset" />
          </mxGeometry>
        </mxCell>
        <mxCell id="WF_goIFKTmSbDn6iOLR5-6" style="rounded=0;orthogonalLoop=1;jettySize=auto;html=1;exitX=0.5;exitY=1;exitDx=0;exitDy=0;entryX=0.5;entryY=0;entryDx=0;entryDy=0;endArrow=openThin;startArrow=diamondThin;startFill=1;startSize=12;endFill=0;endSize=12;" edge="1" parent="1" source="WF_goIFKTmSbDn6iOLR5-1" target="WF_goIFKTmSbDn6iOLR5-3">
          <mxGeometry relative="1" as="geometry" />
        </mxCell>
        <mxCell id="WF_goIFKTmSbDn6iOLR5-10" value="1" style="edgeLabel;html=1;align=center;verticalAlign=middle;resizable=0;points=[];" vertex="1" connectable="0" parent="WF_goIFKTmSbDn6iOLR5-6">
          <mxGeometry x="-0.3571" y="-1" relative="1" as="geometry">
            <mxPoint x="11" y="-4" as="offset" />
          </mxGeometry>
        </mxCell>
        <mxCell id="WF_goIFKTmSbDn6iOLR5-13" value="1" style="edgeLabel;html=1;align=center;verticalAlign=middle;resizable=0;points=[];" vertex="1" connectable="0" parent="WF_goIFKTmSbDn6iOLR5-6">
          <mxGeometry x="0.5527" y="3" relative="1" as="geometry">
            <mxPoint x="9" y="2" as="offset" />
          </mxGeometry>
        </mxCell>
        <mxCell id="WF_goIFKTmSbDn6iOLR5-15" value="+title" style="edgeLabel;html=1;align=center;verticalAlign=middle;resizable=0;points=[];" vertex="1" connectable="0" parent="WF_goIFKTmSbDn6iOLR5-6">
          <mxGeometry x="0.5301" y="1" relative="1" as="geometry">
            <mxPoint x="-30" y="6" as="offset" />
          </mxGeometry>
        </mxCell>
        <mxCell id="WF_goIFKTmSbDn6iOLR5-7" style="rounded=0;orthogonalLoop=1;jettySize=auto;html=1;exitX=0.75;exitY=1;exitDx=0;exitDy=0;entryX=0.25;entryY=0;entryDx=0;entryDy=0;endArrow=openThin;startArrow=diamondThin;startFill=1;startSize=12;endFill=0;endSize=12;" edge="1" parent="1" source="WF_goIFKTmSbDn6iOLR5-1" target="WF_goIFKTmSbDn6iOLR5-4">
          <mxGeometry relative="1" as="geometry" />
        </mxCell>
        <mxCell id="WF_goIFKTmSbDn6iOLR5-11" value="1" style="edgeLabel;html=1;align=center;verticalAlign=middle;resizable=0;points=[];" vertex="1" connectable="0" parent="WF_goIFKTmSbDn6iOLR5-7">
          <mxGeometry x="-0.4516" y="-1" relative="1" as="geometry">
            <mxPoint x="3" y="-13" as="offset" />
          </mxGeometry>
        </mxCell>
        <mxCell id="WF_goIFKTmSbDn6iOLR5-14" value="1" style="edgeLabel;html=1;align=center;verticalAlign=middle;resizable=0;points=[];" vertex="1" connectable="0" parent="WF_goIFKTmSbDn6iOLR5-7">
          <mxGeometry x="0.5377" y="-2" relative="1" as="geometry">
            <mxPoint x="11" y="-8" as="offset" />
          </mxGeometry>
        </mxCell>
        <mxCell id="WF_goIFKTmSbDn6iOLR5-17" value="+body" style="edgeLabel;html=1;align=center;verticalAlign=middle;resizable=0;points=[];" vertex="1" connectable="0" parent="WF_goIFKTmSbDn6iOLR5-7">
          <mxGeometry x="0.4688" y="1" relative="1" as="geometry">
            <mxPoint x="-19" y="10" as="offset" />
          </mxGeometry>
        </mxCell>
        <mxCell id="WF_goIFKTmSbDn6iOLR5-1" value="&lt;b&gt;Window&lt;/b&gt;" style="whiteSpace=wrap;html=1;" vertex="1" parent="1">
          <mxGeometry x="153" y="15" width="64" height="26" as="geometry" />
        </mxCell>
        <mxCell id="WF_goIFKTmSbDn6iOLR5-2" value="&lt;b&gt;Slider&lt;/b&gt;" style="whiteSpace=wrap;html=1;" vertex="1" parent="1">
          <mxGeometry x="40" y="95" width="51" height="26" as="geometry" />
        </mxCell>
        <mxCell id="WF_goIFKTmSbDn6iOLR5-3" value="&lt;b&gt;Header&lt;/b&gt;" style="whiteSpace=wrap;html=1;" vertex="1" parent="1">
          <mxGeometry x="152" y="122" width="59" height="26" as="geometry" />
        </mxCell>
        <mxCell id="WF_goIFKTmSbDn6iOLR5-4" value="&lt;b&gt;Panel&lt;/b&gt;" style="whiteSpace=wrap;html=1;" vertex="1" parent="1">
          <mxGeometry x="282" y="107" width="50" height="26" as="geometry" />
        </mxCell>
        <mxCell id="WF_goIFKTmSbDn6iOLR5-8" value="&lt;b&gt;Figure 11.33 Composite aggregation is depicted as a black diamond&lt;/b&gt;" style="text;html=1;align=left;verticalAlign=middle;resizable=0;points=[];autosize=1;strokeColor=none;fillColor=none;" vertex="1" parent="1">
          <mxGeometry x="40" y="153" width="405" height="26" as="geometry" />
        </mxCell>
      </root>
    </mxGraphModel>
  </diagram>
</mxfile>
